<?xml version="1.0" standalone="no"?>
<!DOCTYPE svg PUBLIC "-//W3C//DTD SVG 20010904//EN"
 "http://www.w3.org/TR/2001/REC-SVG-20010904/DTD/svg10.dtd">
<svg version="1.0" xmlns="http://www.w3.org/2000/svg"
 width="1000.000000pt" height="1000.000000pt" viewBox="0 0 1000.000000 1000.000000"
 preserveAspectRatio="xMidYMid meet">

<g transform="translate(0.000000,1000.000000) scale(0.100000,-0.100000)"
fill="#000000" stroke="none">
<path d="M5205 9973 c-334 -43 -654 -281 -839 -624 -59 -111 -97 -220 -136
-399 -41 -188 -55 -225 -94 -249 -50 -31 -100 -39 -526 -81 -430 -43 -566 -59
-775 -90 -582 -88 -1052 -244 -1450 -481 -279 -166 -495 -377 -600 -584 -177
-353 -97 -729 194 -904 l67 -41 48 -117 c111 -269 204 -421 306 -502 63 -50
105 -62 175 -51 112 18 271 130 425 298 l75 82 70 -92 c87 -117 314 -345 380
-384 41 -23 61 -28 111 -28 150 1 365 164 537 406 22 31 44 55 49 52 5 -3 59
-72 121 -152 230 -303 383 -415 521 -383 27 6 72 25 101 41 71 41 222 200 339
358 54 72 102 132 107 132 4 0 43 -46 85 -102 268 -357 407 -474 572 -485 83
-6 152 17 254 87 117 80 310 268 393 383 l20 28 77 -51 c210 -138 280 -329
155 -424 -138 -105 -359 -129 -1202 -129 -1074 1 -2080 78 -2920 224 -296 51
-409 48 -533 -15 -232 -118 -242 -323 -27 -542 184 -187 452 -313 1054 -495
405 -122 695 -190 1080 -255 33 -5 32 -6 -95 -92 -184 -124 -313 -224 -444
-344 -328 -301 -480 -558 -480 -814 0 -170 59 -295 209 -445 98 -98 164 -143
283 -193 l68 -29 -55 -59 c-184 -198 -265 -500 -252 -930 7 -224 32 -534 47
-596 35 -145 175 -277 387 -366 244 -102 572 -139 844 -96 210 33 340 79 460
165 l46 33 32 -54 c90 -151 302 -253 671 -321 78 -15 149 -18 390 -17 181 0
328 5 380 13 47 7 132 19 190 27 165 24 322 78 418 142 72 49 177 160 204 217
l21 42 76 7 c102 9 252 47 361 92 l89 36 88 -53 c48 -29 137 -86 197 -126 117
-80 146 -87 168 -38 25 56 -14 95 -239 233 l-91 56 53 41 c30 22 69 53 88 68
l35 28 118 -72 c282 -170 539 -309 572 -309 39 0 76 65 54 96 -4 6 -86 54
-183 106 -211 115 -469 268 -469 277 0 4 18 31 41 61 23 30 54 81 70 112 16
32 32 58 35 58 2 0 103 -64 222 -142 119 -78 227 -143 239 -146 45 -9 81 61
51 100 -7 9 -114 83 -238 164 -124 81 -226 147 -226 148 -1 1 7 35 17 76 11
41 25 120 32 176 l12 101 130 -79 c201 -121 607 -364 633 -377 45 -24 101 23
88 74 -6 23 -106 88 -305 199 -32 17 -165 96 -298 176 l-241 144 -6 101 c-15
217 -54 457 -115 696 -29 113 -29 114 -10 145 64 105 98 262 99 449 1 367
-145 715 -399 957 l-90 87 32 7 c55 12 297 112 392 162 238 127 429 265 600
437 186 186 333 380 432 570 280 542 264 1301 -41 1922 -138 279 -212 371
-520 643 -153 135 -186 169 -181 185 68 232 54 597 -31 855 -109 326 -279 523
-545 629 -228 91 -514 116 -709 61 -137 -39 -284 -125 -413 -241 -50 -45 -169
-188 -202 -243 -8 -14 -19 -3 -65 66 -62 93 -207 249 -290 313 -201 153 -440
226 -655 198z m265 -175 c89 -21 222 -94 320 -175 128 -107 259 -279 324 -428
17 -37 32 -55 54 -64 55 -23 80 -5 143 100 249 415 702 611 1094 472 212 -75
383 -228 480 -428 111 -228 139 -570 74 -882 -16 -81 -20 -120 -13 -137 5 -14
70 -78 144 -143 373 -325 525 -514 636 -789 122 -302 174 -688 145 -1074 -25
-321 -101 -546 -269 -795 -344 -512 -988 -892 -1659 -979 -95 -12 -110 -17
-130 -41 -28 -32 -29 -75 -4 -106 17 -21 27 -24 83 -22 35 2 115 12 177 22
l114 20 71 -46 c140 -90 277 -254 356 -427 74 -162 108 -298 117 -477 16 -305
-103 -522 -387 -708 -371 -242 -1220 -430 -1725 -382 -261 26 -464 66 -562
113 -73 34 -86 59 -59 114 37 79 5 144 -72 144 -48 0 -116 34 -130 66 -26 56
-7 89 78 132 41 20 56 34 63 57 12 42 -6 84 -43 98 -52 20 -74 109 -38 154 10
13 103 43 183 60 22 4 270 8 550 8 545 1 571 3 820 60 202 47 456 154 600 252
67 46 70 50 73 92 3 34 -2 49 -20 68 -31 33 -69 26 -145 -25 -166 -112 -409
-200 -663 -237 -131 -20 -450 -34 -770 -35 -436 0 -624 -32 -746 -125 l-31
-24 -29 30 c-102 107 -272 158 -524 159 -146 0 -407 25 -485 45 -102 26 -159
61 -221 131 -49 55 -61 64 -91 64 -23 0 -42 -8 -58 -25 -37 -36 -32 -74 15
-134 64 -81 151 -129 297 -165 131 -32 398 -66 516 -66 96 0 242 -27 322 -61
77 -32 145 -84 145 -112 0 -8 -16 -34 -35 -57 -48 -58 -47 -94 4 -144 43 -42
54 -75 39 -118 -7 -20 -17 -28 -33 -28 -32 0 -85 -52 -85 -84 0 -14 13 -41 30
-59 17 -19 30 -41 30 -50 0 -48 -159 -141 -269 -157 -206 -29 -852 65 -1174
172 -304 100 -463 246 -527 483 -20 72 -21 87 -10 150 32 184 182 388 461 626
165 141 311 248 476 348 76 46 156 96 179 111 37 25 45 26 98 19 31 -4 106
-11 167 -14 97 -7 112 -6 129 10 22 20 27 74 10 105 -17 32 -44 40 -162 50
-856 75 -1968 386 -2422 677 -125 80 -190 159 -202 245 -5 38 -2 48 20 75 70
83 206 87 641 19 943 -147 1860 -205 3094 -193 617 6 690 11 832 56 127 40
242 138 290 246 82 185 -102 482 -375 605 -267 121 -571 146 -1936 160 -1053
11 -1539 23 -1780 45 -633 59 -998 186 -1140 398 -119 179 -86 415 96 688 56
83 202 224 307 297 154 107 342 203 593 306 425 172 1015 289 1674 331 438 27
592 51 658 102 45 34 77 106 97 218 51 287 104 435 215 601 93 137 198 234
341 315 185 105 373 138 549 97z m-4039 -3412 c96 -21 222 -41 447 -72 l42 -5
-37 -46 c-59 -72 -182 -173 -251 -206 -70 -33 -118 -33 -154 0 -34 30 -98 131
-154 242 -61 120 -65 135 -31 122 13 -5 75 -21 138 -35z m1089 -126 c96 -5
253 -12 348 -16 94 -3 172 -9 172 -11 0 -16 -151 -179 -212 -230 -101 -83
-138 -103 -186 -103 -79 0 -210 115 -353 312 l-50 70 53 -6 c29 -3 132 -10
228 -16z m1708 -38 c5 -3 -90 -122 -171 -217 -80 -93 -182 -183 -215 -192 -42
-10 -104 29 -202 127 -78 78 -240 274 -240 291 0 4 821 -5 828 -9z m777 -17
c192 -4 432 -28 535 -54 l35 -9 -141 -139 c-121 -121 -151 -145 -223 -181 -67
-34 -94 -42 -138 -42 -73 0 -109 19 -196 104 -60 58 -242 276 -271 323 -5 9
16 11 91 8 54 -3 193 -7 308 -10z m2674 -3640 c29 -145 67 -442 59 -465 -2 -6
-75 37 -163 95 -88 57 -170 105 -182 105 -25 0 -53 -35 -53 -66 0 -30 27 -51
229 -179 l172 -110 -6 -60 c-9 -96 -36 -271 -44 -284 -5 -8 -66 25 -192 104
-101 64 -194 118 -207 122 -47 12 -87 -68 -51 -101 8 -7 103 -68 212 -135 128
-80 197 -129 197 -139 0 -40 -121 -248 -139 -238 -3 2 -60 35 -126 74 -147 86
-170 96 -196 81 -26 -14 -42 -55 -29 -78 5 -10 66 -51 135 -92 l125 -73 -20
-21 c-11 -11 -55 -42 -99 -69 l-80 -48 -143 87 c-79 48 -154 87 -167 87 -43 1
-67 -58 -38 -94 6 -8 56 -43 111 -76 98 -62 98 -62 70 -73 -35 -13 -173 -45
-232 -53 l-42 -6 5 92 c4 51 2 178 -3 282 -8 180 -10 190 -31 207 -33 27 -86
24 -116 -5 l-25 -25 1 -253 c1 -246 -1 -279 -23 -383 -36 -168 -200 -274 -498
-324 -582 -96 -1282 -8 -1459 184 -71 77 -75 107 -67 500 8 451 36 773 91
1064 24 126 72 246 124 311 l21 25 0 -54 c0 -67 23 -107 90 -156 140 -103 425
-168 795 -182 495 -18 1181 119 1580 317 127 63 323 195 364 244 8 9 15 15 17
13 2 -1 17 -70 33 -152z m-4418 -159 c292 -70 702 -126 926 -126 92 0 204 21
271 50 24 11 46 20 47 20 1 0 -6 -30 -16 -67 -43 -163 -65 -358 -79 -723 -6
-129 -14 -273 -20 -320 -6 -47 -10 -161 -9 -253 1 -194 4 -185 -103 -257 -274
-183 -842 -182 -1211 3 -222 111 -263 236 -254 767 5 316 18 422 66 563 49
145 130 258 235 328 33 22 65 38 72 35 6 -2 40 -11 75 -20z"/>
<path d="M4815 9540 c-28 -31 -25 -85 6 -116 24 -24 34 -26 230 -39 112 -8
274 -18 360 -21 l156 -7 16 24 c37 53 3 139 -55 139 -13 0 -158 9 -323 20
-375 25 -368 25 -390 0z"/>
<path d="M6541 9404 c-12 -15 -21 -35 -21 -46 0 -28 27 -75 47 -82 15 -6 186
-17 633 -41 108 -6 117 -5 143 15 37 29 38 86 2 120 -24 22 -35 24 -207 31
-101 5 -258 13 -350 19 -229 14 -223 14 -247 -16z"/>
<path d="M5039 9257 c-104 -44 -168 -105 -217 -208 -118 -251 -28 -566 192
-674 48 -24 76 -30 148 -33 83 -4 92 -3 153 27 101 50 172 141 219 281 66 199
31 377 -101 509 -81 80 -154 114 -257 118 -68 3 -90 0 -137 -20z m170 -148
c65 -14 130 -70 162 -141 31 -69 34 -215 6 -294 -34 -97 -124 -173 -206 -174
-101 0 -197 74 -227 176 -47 163 29 365 161 425 48 22 42 22 104 8z"/>
<path d="M6684 9161 c-237 -61 -376 -346 -304 -625 26 -102 67 -172 140 -239
80 -74 147 -100 260 -101 73 0 93 4 142 27 146 71 261 287 260 488 -1 94 -14
145 -55 224 -71 133 -203 223 -338 230 -41 2 -88 1 -105 -4z m208 -197 c128
-90 163 -303 76 -474 -47 -91 -95 -124 -191 -128 -88 -3 -145 22 -194 87 -93
121 -79 343 28 465 60 68 100 87 176 83 50 -2 71 -9 105 -33z"/>
<path d="M7436 7814 c-21 -21 -20 -67 2 -87 9 -8 82 -45 162 -80 80 -36 300
-139 490 -230 438 -209 527 -248 554 -238 31 12 54 56 40 78 -6 10 -107 63
-225 119 -118 55 -342 162 -499 236 -307 146 -470 218 -494 218 -8 0 -22 -7
-30 -16z"/>
<path d="M1354 7409 c-41 -12 -91 -69 -100 -114 -16 -85 26 -165 95 -186 48
-14 80 -7 122 28 124 104 33 314 -117 272z"/>
<path d="M1855 7356 c-146 -67 -115 -296 40 -296 79 0 145 72 145 160 0 104
-98 177 -185 136z"/>
<path d="M7738 7133 c-24 -29 -28 -49 -12 -72 8 -11 19 -21 23 -21 5 0 141
-61 302 -136 380 -176 547 -246 569 -239 10 3 23 19 30 35 20 49 -3 70 -137
128 -65 28 -251 112 -413 186 -162 75 -306 136 -321 136 -14 0 -33 -8 -41 -17z"/>
<path d="M7564 6565 c-38 -58 -16 -74 416 -300 174 -91 371 -199 496 -271 19
-11 39 -15 56 -11 31 8 54 56 40 84 -10 17 -193 120 -662 370 -118 63 -229
123 -246 134 -44 27 -80 25 -100 -6z"/>
<path d="M6996 6271 c-32 -35 -17 -72 44 -112 76 -51 328 -195 690 -394 168
-92 385 -214 482 -271 97 -57 186 -104 197 -104 38 0 70 54 52 87 -11 20 -312
195 -791 461 -179 98 -391 218 -471 266 -80 47 -154 86 -166 86 -11 0 -28 -9
-37 -19z"/>
<path d="M6611 5814 c-36 -45 -23 -70 56 -115 273 -155 906 -554 1128 -712 44
-31 88 -57 97 -57 24 0 50 43 46 76 -2 24 -28 45 -155 134 -84 58 -225 151
-313 208 -249 160 -803 492 -822 492 -9 0 -26 -12 -37 -26z"/>
<path d="M6560 5300 c-23 -23 -26 -58 -7 -82 6 -9 116 -85 242 -169 237 -157
315 -213 398 -286 55 -50 96 -57 121 -21 33 46 16 69 -132 185 -101 80 -571
393 -589 393 -7 0 -22 -9 -33 -20z"/>
<path d="M6240 4390 c-28 -28 -25 -56 8 -86 29 -28 662 -344 687 -344 23 0 55
37 55 64 0 14 -10 33 -24 44 -13 10 -123 65 -243 122 -120 56 -266 129 -324
161 -58 33 -113 59 -122 59 -10 0 -26 -9 -37 -20z"/>
<path d="M5980 4060 c-25 -25 -26 -54 -1 -79 45 -45 556 -333 590 -333 27 0
61 34 61 62 0 25 -21 40 -180 128 -80 44 -206 117 -280 161 -74 45 -143 81
-152 81 -10 0 -27 -9 -38 -20z"/>
<path d="M5550 3740 c-11 -11 -20 -29 -20 -39 0 -48 301 -230 357 -216 26 6
47 47 38 76 -3 10 -48 41 -99 68 -51 28 -119 69 -152 91 -66 45 -95 49 -124
20z"/>
</g>
</svg>
