<?xml version="1.0" standalone="no"?>
<!DOCTYPE svg PUBLIC "-//W3C//DTD SVG 20010904//EN"
 "http://www.w3.org/TR/2001/REC-SVG-20010904/DTD/svg10.dtd">
<svg version="1.0" xmlns="http://www.w3.org/2000/svg"
 width="779.000000pt" height="376.000000pt" viewBox="0 0 779.000000 376.000000"
 preserveAspectRatio="xMidYMid meet">

<g transform="translate(0.000000,376.000000) scale(0.100000,-0.100000)"
fill="#000000" stroke="none">
<path d="M2210 2491 l0 -190 -47 -3 -46 -3 -112 -310 c-61 -170 -114 -317
-117 -325 -4 -14 -23 30 -173 425 l-80 210 -48 3 c-26 2 -47 1 -47 -2 0 -3 67
-177 149 -386 l149 -380 -35 -92 c-19 -51 -48 -128 -64 -170 l-28 -78 47 0 47
0 36 98 c19 53 109 298 200 545 l164 447 5 -382 5 -383 43 -3 42 -3 0 292 0
292 46 43 c26 23 69 54 96 69 65 36 152 33 194 -6 55 -50 58 -69 62 -392 l4
-298 41 3 42 3 3 267 c3 365 -14 446 -112 503 -92 54 -220 40 -315 -35 -28
-22 -53 -40 -56 -40 -3 0 -5 106 -5 235 l0 235 -45 0 -45 0 0 -189z"/>
<path d="M3480 2095 l0 -585 45 0 45 0 0 294 0 294 53 48 c64 58 118 83 177
84 63 0 111 -27 135 -75 18 -37 20 -66 25 -340 l5 -300 43 -3 42 -3 0 292 c0
245 -3 303 -17 353 -50 179 -253 219 -425 84 l-38 -30 0 236 0 236 -45 0 -45
0 0 -585z"/>
<path d="M773 2641 c-29 -21 -46 -43 -58 -78 -28 -80 -24 -77 -132 -90 -174
-20 -267 -52 -338 -114 -57 -51 -67 -130 -20 -169 9 -7 28 -35 41 -62 28 -56
56 -63 100 -25 l27 24 30 -34 c36 -41 62 -42 103 -2 l32 31 32 -36 c42 -47 69
-47 108 1 l29 36 38 -41 c46 -52 71 -53 119 -6 l38 37 21 -22 c17 -17 19 -25
11 -39 -22 -35 -240 -37 -512 -5 -100 11 -140 13 -158 4 -36 -16 -32 -54 11
-86 35 -28 181 -79 255 -91 40 -7 40 -7 18 -22 -39 -26 -99 -86 -114 -114 -25
-49 -18 -83 25 -119 l39 -33 -21 -28 c-17 -23 -21 -42 -20 -106 0 -43 4 -88 8
-101 15 -47 141 -77 211 -51 21 9 35 6 73 -12 83 -41 256 -26 288 25 4 7 24
18 44 24 31 9 41 7 68 -9 33 -22 45 -6 14 18 -37 26 1 28 47 2 62 -35 76 -18
15 17 -25 15 -45 31 -45 35 0 18 22 21 45 6 13 -9 29 -16 35 -16 19 0 10 16
-20 33 -20 12 -30 26 -30 43 0 31 5 30 60 -6 48 -32 60 -36 60 -21 0 6 -26 24
-58 41 l-58 30 -11 72 c-7 47 -8 80 -2 97 18 45 -8 139 -46 171 -14 12 -10 17
37 42 120 66 178 154 178 274 0 94 -22 153 -81 218 -47 51 -49 57 -49 110 0
110 -52 166 -155 166 -38 0 -51 -6 -84 -36 -38 -33 -40 -34 -50 -15 -17 31
-75 61 -118 61 -28 0 -52 -9 -80 -29z m173 -46 l41 -47 22 30 c28 40 84 66
129 59 66 -11 102 -68 102 -163 0 -53 2 -58 43 -97 56 -55 79 -106 85 -189 10
-145 -81 -261 -236 -301 -29 -7 -52 -17 -50 -22 2 -6 11 -8 20 -7 47 8 98 -65
98 -140 0 -52 -19 -82 -69 -107 -50 -26 -188 -54 -231 -46 -84 14 -90 17 -90
36 0 10 -7 19 -15 19 -16 0 -20 12 -7 24 4 4 7 18 7 29 0 21 6 22 110 28 110
5 205 32 205 58 0 16 -17 13 -46 -6 -17 -11 -63 -19 -152 -25 -151 -11 -138
-11 -231 1 -41 6 -81 17 -91 26 -11 10 -20 12 -24 6 -9 -14 32 -38 77 -45 119
-19 108 -12 103 -63 -2 -25 -9 -50 -15 -56 -16 -16 -108 -10 -177 11 -67 20
-100 56 -90 96 14 57 133 156 188 156 27 0 42 20 16 20 -40 1 -179 32 -245 54
-90 30 -143 60 -143 80 0 24 27 26 133 11 124 -18 425 -31 490 -21 26 4 54 14
62 22 34 35 6 89 -60 114 -17 6 -147 15 -305 19 -225 7 -283 12 -318 26 -68
28 -82 80 -35 135 59 71 171 114 343 132 58 6 110 15 117 20 6 5 14 27 18 49
7 43 54 105 89 120 43 18 89 2 132 -46z m-587 -452 c3 -2 -5 -14 -18 -26 l-22
-22 -20 24 c-10 13 -19 27 -19 31 0 8 70 2 79 -7z m161 -20 c3 -3 -6 -13 -18
-24 -27 -21 -54 -13 -73 23 -11 20 -10 20 37 13 27 -4 51 -9 54 -12z m153 -25
l-32 -32 -26 24 c-14 13 -25 27 -25 32 0 4 26 8 57 8 l58 0 -32 -32z m186 26
l32 -7 -22 -23 c-35 -38 -73 -29 -103 24 -8 14 38 17 93 6z m341 -550 c0 -36
-8 -42 -28 -22 -6 6 -14 9 -18 6 -3 -4 6 -14 20 -23 18 -12 26 -26 26 -47 0
-30 0 -30 -26 -14 -14 10 -31 15 -37 13 -7 -2 3 -11 21 -21 17 -9 32 -23 32
-32 0 -19 -28 -30 -43 -15 -6 6 -16 11 -21 11 -6 -1 0 -9 13 -20 20 -17 21
-21 6 -26 -9 -4 -27 -2 -41 4 -28 13 -32 5 -6 -14 16 -12 15 -13 -5 -14 -20 0
-23 5 -23 41 0 61 -24 45 -28 -19 -4 -74 -27 -87 -147 -87 -72 0 -97 4 -119
19 l-29 18 6 107 c3 58 9 116 12 128 l7 22 28 -21 c60 -44 249 -30 345 26 22
12 43 21 48 19 4 -2 7 -20 7 -39z m-513 -9 c49 0 51 -1 48 -25 -3 -14 -7 -64
-11 -113 -7 -101 -12 -107 -94 -107 -68 0 -117 22 -126 54 -3 15 -4 57 -2 95
5 93 23 115 87 104 25 -4 69 -8 98 -8z"/>
<path d="M785 2601 c14 -13 99 -18 103 -6 1 6 -23 11 -55 13 -38 2 -54 0 -48
-7z"/>
<path d="M1030 2580 c0 -6 27 -10 60 -10 33 0 60 4 60 10 0 6 -27 10 -60 10
-33 0 -60 -4 -60 -10z"/>
<path d="M797 2552 c-22 -25 -21 -75 1 -95 40 -37 92 -10 92 47 0 57 -58 87
-93 48z m61 -14 c28 -28 2 -88 -33 -74 -22 8 -29 34 -17 62 13 26 31 31 50 12z"/>
<path d="M1030 2540 c-24 -24 -27 -82 -4 -104 8 -9 29 -16 45 -16 58 0 73 101
20 129 -28 15 -38 14 -61 -9z m66 -35 c3 -14 4 -32 0 -40 -14 -39 -66 -23 -66
19 0 47 55 64 66 21z"/>
<path d="M1160 2355 c0 -9 172 -86 178 -80 5 4 -158 85 -172 85 -3 0 -6 -2 -6
-5z"/>
<path d="M275 2290 c-8 -14 3 -30 21 -30 8 0 14 9 14 20 0 21 -24 28 -35 10z"/>
<path d="M353 2284 c-7 -19 11 -39 26 -30 16 10 13 33 -4 40 -9 3 -18 -1 -22
-10z"/>
<path d="M1258 2228 c35 -17 66 -28 69 -24 7 7 -101 56 -120 55 -7 0 16 -14
51 -31z"/>
<path d="M1180 2176 c0 -6 127 -76 137 -76 13 1 -28 29 -79 56 -47 24 -58 28
-58 20z"/>
<path d="M1100 2132 c0 -10 201 -124 207 -118 6 5 -42 36 -139 90 -38 20 -68
33 -68 28z"/>
<path d="M1041 2065 c16 -15 183 -115 187 -111 6 7 -163 116 -179 116 -7 0
-10 -2 -8 -5z"/>
<path d="M1040 1992 c0 -8 85 -72 96 -72 12 0 -10 22 -52 50 -24 17 -44 27
-44 22z"/>
<path d="M990 1862 c0 -10 91 -55 97 -48 3 3 -18 16 -46 30 -28 15 -51 23 -51
18z"/>
<path d="M954 1811 c10 -15 86 -54 86 -43 0 5 -17 17 -37 27 -55 28 -56 29
-49 16z"/>
<path d="M904 1755 c11 -8 25 -15 30 -15 6 0 2 7 -8 15 -11 8 -25 15 -30 15
-6 0 -2 -7 8 -15z"/>
<path d="M5089 2590 c-172 -30 -280 -185 -314 -454 l-7 -49 -18 41 c-62 138
-237 221 -381 179 -118 -35 -199 -115 -239 -237 -72 -219 2 -446 175 -538 44
-23 62 -27 145 -27 81 0 102 4 145 25 91 44 160 135 189 248 l13 47 17 -52
c25 -74 88 -167 138 -203 73 -53 105 -63 203 -64 78 0 97 3 146 27 31 15 76
48 99 73 38 42 110 172 110 201 0 10 52 13 240 13 l240 0 0 -155 0 -155 40 0
40 0 0 155 0 155 65 0 c49 0 65 -3 65 -14 0 -34 83 -176 126 -216 71 -65 123
-84 229 -84 108 0 164 23 235 94 100 101 143 233 143 445 0 163 -15 239 -68
345 -70 139 -167 203 -310 203 -146 0 -246 -65 -313 -204 -52 -107 -66 -177
-67 -336 l0 -143 -52 0 -53 0 0 346 0 345 -32 -3 c-29 -3 -52 -30 -262 -310
l-231 -307 -6 108 c-11 175 -55 306 -134 398 -68 79 -202 123 -316 103z m166
-99 c86 -39 161 -154 186 -285 14 -72 11 -262 -5 -337 -51 -239 -250 -355
-418 -244 -47 31 -100 110 -129 190 -30 83 -38 310 -15 408 30 129 103 235
186 271 49 21 146 20 195 -3z m1389 5 c121 -51 193 -194 202 -406 9 -198 -30
-341 -116 -428 -58 -58 -103 -77 -182 -76 -56 0 -74 5 -114 30 -100 61 -156
172 -173 339 -26 255 45 461 181 529 60 30 147 35 202 12z m-654 -331 l0 -255
-196 0 c-108 0 -194 4 -192 9 7 18 373 500 381 500 4 1 7 -114 7 -254z m-1468
53 c59 -18 120 -77 154 -150 25 -56 28 -74 28 -163 0 -108 -16 -162 -70 -232
-84 -110 -251 -119 -349 -17 -62 64 -88 136 -88 249 0 116 27 190 92 255 66
65 144 85 233 58z"/>
<path d="M7055 2578 c-11 -32 -84 -472 -79 -477 9 -9 86 -6 159 8 156 28 287
-22 331 -128 59 -141 1 -302 -132 -367 -96 -47 -236 -34 -331 30 l-37 26 -23
-28 c-12 -15 -21 -34 -20 -42 1 -8 38 -33 81 -55 78 -40 80 -40 190 -40 99 0
117 3 168 27 228 107 287 416 111 579 -77 71 -119 83 -270 84 -114 0 -132 2
-129 15 3 8 15 77 28 152 l22 138 211 2 210 3 3 43 3 42 -246 0 c-188 0 -247
-3 -250 -12z"/>
<path d="M3100 2307 c-98 -28 -190 -113 -230 -214 -46 -117 -37 -313 20 -422
24 -47 94 -113 150 -142 39 -21 59 -24 145 -24 91 0 104 2 152 29 28 16 66 40
83 55 l30 26 -25 32 -25 32 -58 -40 c-110 -75 -222 -73 -310 6 -64 58 -93 124
-100 231 -7 121 22 209 91 278 97 96 208 102 317 16 l38 -30 27 31 26 32 -26
27 c-68 71 -205 105 -305 77z"/>
</g>
</svg>
